# xmcd CD database file generated by LOLA_Freedb v0.9beta0
# 
# Track frame offsets:
#      150
#      33390
#      50816
#      72076
#      89581
#      109519
#      121453
#      136863
#      149799
# 
# Disc length: 2276 seconds
# 
# Revision: 0 
# Processed by: cddbd v1.5.2PL0 Copyright (c) Steve Scherf et al.
# Submitted via: LOLA_Freedb v0.9beta0
# 
DISCID=8708e209
DTITLE=Swamp Dogg - Have You Heared This Story??
DYEAR=1974
DGENRE=
TTITLE0=The Mind Does The Dancing While The Body Pulls The Strings
TTITLE1=Dr. M. L. G. (J. A.)
TTITLE2=Chewed Up Grass
TTITLE3=My Hang-Ups Ain't Hung-Up No More
TTITLE4=Did I Come Back Too Soon (Or Stay Away Too Long)
TTITLE5=I Wanna Lifetime Of Loving You
TTITLE6=When He Was No One
TTITLE7=I Wouldn't Leave Here To Go To Heaven
TTITLE8=God Ain't Blessing America
EXTD=
EXTT0=
EXTT1=
EXTT2=
EXTT3=
EXTT4=
EXTT5=
EXTT6=
EXTT7=
EXTT8=
PLAYORDER=
